HIERARCHY
ROOT Hips
{
	OFFSET -0.001795 -0.223333 0.028219
	CHANNELS 6 Xposition Yposition Zposition Zrotation Yrotation Xrotation 
	JOINT LeftUpLeg
	{
		OFFSET 0.069520 -0.091406 -0.006815
		CHANNELS 3 Zrotation Yrotation Xrotation
		JOINT LeftLeg
		{
			OFFSET 0.034277 -0.375199 -0.004496
			CHANNELS 3 Zrotation Yrotation Xrotation
			JOINT LeftFoot
			{
				OFFSET -0.013596 -0.397961 -0.043693
				CHANNELS 3 Zrotation Yrotation Xrotation
				JOINT LeftToe
				{
					OFFSET 0.026358 -0.055791 0.119288
					CHANNELS 3 Zrotation Yrotation Xrotation
					End Site
					{
						OFFSET 0.000000 0.000000 0.000000
					}
				}
			}
		}
	}
	JOINT RightUpLeg
	{
		OFFSET -0.067670 -0.090522 -0.004320
		CHANNELS 3 Zrotation Yrotation Xrotation
		JOINT RightLeg
		{
			OFFSET -0.038290 -0.382569 -0.008850
			CHANNELS 3 Zrotation Yrotation Xrotation
			JOINT RightFoot
			{
				OFFSET 0.015774 -0.398415 -0.042312
				CHANNELS 3 Zrotation Yrotation Xrotation
				JOINT RightToe
				{
					OFFSET -0.025372 -0.048144 0.123348
					CHANNELS 3 Zrotation Yrotation Xrotation
					End Site
					{
						OFFSET 0.000000 0.000000 0.000000
					}
				}
			}
		}
	}
	JOINT Spine
	{
		OFFSET -0.002533 0.108963 -0.026696
		CHANNELS 3 Zrotation Yrotation Xrotation
		JOINT Spine1
		{
			OFFSET 0.005487 0.135180 0.001092
			CHANNELS 3 Zrotation Yrotation Xrotation
			JOINT Spine2
			{
				OFFSET 0.001457 0.052922 0.025425
				CHANNELS 3 Zrotation Yrotation Xrotation
				JOINT Neck
				{
					OFFSET -0.002778 0.213870 -0.042857
					CHANNELS 3 Zrotation Yrotation Xrotation
					JOINT Head
					{
						OFFSET 0.005152 0.064970 0.051349
						CHANNELS 3 Zrotation Yrotation Xrotation
						End Site
						{
							OFFSET 0.000000 0.000000 0.000000
						}
					}
				}
				JOINT LeftShoulder
				{
					OFFSET 0.078845 0.121749 -0.034090
					CHANNELS 3 Zrotation Yrotation Xrotation
					JOINT LeftArm
					{
						OFFSET 0.090977 0.030469 -0.008868
						CHANNELS 3 Zrotation Yrotation Xrotation
						JOINT LeftForeArm
						{
							OFFSET 0.259612 -0.012772 -0.027456
							CHANNELS 3 Zrotation Yrotation Xrotation
							JOINT LeftHand
							{
								OFFSET 0.249234 0.008986 -0.001171
								CHANNELS 3 Zrotation Yrotation Xrotation
								End Site
								{
									OFFSET 0.000000 0.000000 0.000000
								}
							}
						}
					}
				}
				JOINT RightShoulder
				{
					OFFSET -0.081759 0.118833 -0.038615
					CHANNELS 3 Zrotation Yrotation Xrotation
					JOINT RightArm
					{
						OFFSET -0.096012 0.032551 -0.009143
						CHANNELS 3 Zrotation Yrotation Xrotation
						JOINT RightForeArm
						{
							OFFSET -0.253742 -0.013329 -0.021401
							CHANNELS 3 Zrotation Yrotation Xrotation
							JOINT RightHand
							{
								OFFSET -0.255298 0.007772 -0.005559
								CHANNELS 3 Zrotation Yrotation Xrotation
								End Site
								{
									OFFSET 0.000000 0.000000 0.000000
								}
							}
						}
					}
				}
			}
		}
	}
}
MOTION
Frames: 15
Frame Time: 0.050000
0.060675 0.949960 1.166542 -1.532203 -6.053734 2.609323 2.055381 -0.056191 -0.517160 3.954285 -0.625633 2.481778 -0.215793 -0.297346 0.425222 0.000000 0.000000 0.000000 5.644136 -0.660389 3.130445 -5.712292 0.871422 3.362808 -1.546506 -2.173849 -3.023115 0.000000 0.000000 0.000000 3.363689 0.062255 -1.607419 -1.896513 0.899490 -0.738575 -4.326744 5.633208 3.799871 7.216079 -2.578096 -17.793704 0.000000 0.000000 0.000000 -20.195615 0.778524 -3.316828 -46.108519 -3.312677 -3.905918 -35.948007 -45.089610 16.532386 0.000000 0.000000 0.000000 13.961600 -5.752374 -3.524481 54.683210 -4.639934 -7.196563 54.618351 43.113800 25.012795 0.000000 0.000000 0.000000 
0.059323 0.948044 1.169181 -1.655098 -5.570645 2.578140 2.205835 -0.229566 -2.858140 3.609569 -0.873825 7.599372 0.505550 0.132225 -2.471789 0.000000 0.000000 0.000000 6.077731 -0.767380 3.694202 -5.608657 0.918238 3.963945 -2.113411 -2.633286 -4.935184 0.000000 0.000000 0.000000 3.789954 0.013675 -0.978044 -2.352703 1.120967 -0.366610 -3.929721 5.339144 4.068937 7.178416 -2.474564 -18.437653 0.000000 0.000000 0.000000 -19.769202 0.475795 -3.045649 -46.875265 -4.655980 -3.515174 -36.102931 -45.618805 16.854297 0.000000 0.000000 0.000000 13.282024 -5.917059 -3.541568 54.495441 -3.874808 -6.844223 56.199140 43.949493 26.340380 0.000000 0.000000 0.000000 
0.058857 0.945215 1.173640 -1.842070 -5.684884 2.126210 2.394772 -0.461015 -6.361963 2.834101 -1.080299 15.483997 0.910606 0.015297 -5.023671 0.000000 0.000000 0.000000 6.343574 -0.999820 5.211771 -5.472230 0.920805 4.181388 -1.717476 -0.596012 -6.334033 0.000000 0.000000 0.000000 4.146186 -0.085612 0.342708 -2.120835 1.014955 -0.150711 -4.117164 6.019815 4.457836 6.744866 -2.308738 -17.470249 0.000000 0.000000 0.000000 -18.916521 -0.086766 -2.770451 -47.941759 -5.332528 -3.359881 -36.239465 -45.001907 16.528488 0.000000 0.000000 0.000000 12.975324 -5.426162 -3.162383 54.399829 -3.141701 -6.538230 56.680156 46.012032 28.227419 0.000000 0.000000 0.000000 
0.060299 0.941941 1.180212 -2.479327 -5.990037 3.081489 3.696326 -0.691944 -12.138353 1.715393 -1.006942 24.827093 1.383995 1.410108 -4.328115 0.000000 0.000000 0.000000 6.834166 -0.925552 4.336264 -5.239628 1.057248 6.000600 -2.121695 -1.357894 -6.924913 0.000000 0.000000 0.000000 4.958658 -0.155113 0.824101 -2.256767 1.082022 0.092692 -4.176353 7.142082 4.418390 6.627800 -1.815826 -19.521844 0.000000 0.000000 0.000000 -19.129041 0.274369 -3.244890 -48.067745 -5.609994 -3.191350 -36.937981 -44.946629 16.606383 0.000000 0.000000 0.000000 13.072928 -5.241089 -2.937134 53.958051 -2.120451 -6.016063 57.148939 47.372962 29.743595 0.000000 0.000000 0.000000 
0.063855 0.938380 1.191509 -1.996155 -6.015386 2.962031 3.025999 -1.032889 -17.652304 1.034771 -0.858107 32.967484 1.561267 1.959149 -3.864177 0.000000 0.000000 0.000000 6.255810 -1.009411 5.216446 -5.241643 1.167647 7.134325 -1.961424 -0.522292 -7.443737 0.000000 0.000000 0.000000 4.807145 -0.275835 2.350800 -2.410224 1.151679 -0.124792 -3.671993 7.882166 5.040890 5.954255 -1.149344 -21.101079 0.000000 0.000000 0.000000 -19.948118 0.251227 -3.517323 -47.705010 -5.443095 -3.218154 -38.889058 -45.763736 17.737220 0.000000 0.000000 0.000000 12.572027 -4.583641 -2.477395 54.321804 0.108632 -5.115596 58.024753 50.182174 32.527541 0.000000 0.000000 0.000000 
0.069056 0.935289 1.209065 -2.142844 -5.762620 3.450543 2.866101 -1.362187 -24.196207 0.151159 -0.527253 39.285502 2.010993 3.158411 -3.270343 0.000000 0.000000 0.000000 6.367623 -1.177567 6.237870 -5.167457 1.159882 7.195615 -1.599334 0.390163 -7.240794 0.000000 0.000000 0.000000 4.871611 -0.391745 3.628591 -1.977224 0.924589 -1.760695 -3.553026 9.707211 6.576514 6.030176 -0.822917 -22.298587 0.000000 0.000000 0.000000 -20.004713 0.864909 -4.291858 -47.959944 -3.620686 -3.961275 -43.470481 -46.096460 19.651802 0.000000 0.000000 0.000000 12.372906 -4.145619 -1.959317 55.025765 2.135396 -4.348929 61.961946 55.081853 39.612421 0.000000 0.000000 0.000000 
0.075485 0.930686 1.233509 -1.988304 -6.444176 4.276951 2.897962 -1.537011 -30.352905 -0.031557 -0.341379 41.138313 2.635678 4.785787 -2.571448 0.000000 0.000000 0.000000 5.458678 -1.244197 7.262623 -5.095477 1.080735 6.533330 -1.021810 2.162708 -7.149666 0.000000 0.000000 0.000000 4.487811 -0.414410 4.010700 -2.261900 1.051623 -1.706005 -3.430375 12.289434 6.643460 6.243922 -0.650606 -22.405098 0.000000 0.000000 0.000000 -18.905268 1.042196 -4.698473 -46.887881 -1.590938 -4.518199 -49.700887 -47.338490 22.685961 0.000000 0.000000 0.000000 12.473267 -3.675627 -1.395852 55.788159 5.062024 -3.010869 65.499151 60.079601 47.364969 0.000000 0.000000 0.000000 
0.083243 0.924527 1.265226 -1.775731 -7.063212 4.882434 3.774158 -1.341926 -35.715405 0.137492 -0.366472 41.403244 2.615431 5.061308 -1.463635 0.000000 0.000000 0.000000 4.482506 -1.326590 8.720819 -5.447724 1.141214 6.611376 -0.423444 4.394631 -7.551937 0.000000 0.000000 0.000000 3.614328 -0.453861 5.206946 -2.856892 1.317128 -1.865093 -2.581220 15.211654 6.328814 7.356775 -0.769159 -23.560946 0.000000 0.000000 0.000000 -17.357203 1.364782 -5.043164 -46.841901 1.399404 -5.574216 -56.855593 -48.738497 26.390860 0.000000 0.000000 0.000000 11.672473 -4.618152 -1.536651 56.491327 7.828204 -1.485501 79.265585 63.602230 63.361010 0.000000 0.000000 0.000000 
0.092762 0.916242 1.305544 -1.450819 -7.379677 5.713108 5.209022 -0.834929 -39.733307 0.055410 -0.313759 41.361428 2.242186 4.690517 -0.007241 0.000000 0.000000 0.000000 2.877476 -1.361035 10.837427 -5.299446 1.097019 6.440039 0.193552 6.273737 -7.525272 0.000000 0.000000 0.000000 2.398440 -0.439386 6.344229 -3.001853 1.350498 -3.021211 -2.237431 17.499173 7.693720 8.180075 -0.723264 -25.035156 0.000000 0.000000 0.000000 -15.744593 2.100450 -5.353699 -46.486918 3.683067 -6.498189 -64.221745 -50.519495 30.968352 0.000000 0.000000 0.000000 11.067677 -4.881533 -1.395639 57.006433 11.496036 0.365977 94.204650 67.543386 83.316704 0.000000 0.000000 0.000000 
0.104862 0.906067 1.356282 -1.256252 -8.232100 6.583919 6.581790 -0.157222 -42.047637 -1.581998 0.715189 43.189918 2.217443 4.537359 -0.305401 0.000000 0.000000 0.000000 1.125081 -1.354948 13.936716 -6.281628 1.239095 6.381242 1.631507 8.255801 -5.036148 0.000000 0.000000 0.000000 1.244062 -0.391881 7.485556 -4.146334 1.795777 -4.504775 -0.783167 20.648948 9.403799 9.602393 -0.754625 -27.517309 0.000000 0.000000 0.000000 -15.166107 1.967814 -5.655994 -45.313033 4.561794 -6.576391 -68.062699 -50.782209 32.482224 0.000000 0.000000 0.000000 9.558514 -5.398608 -1.426501 58.114699 12.119817 1.029222 111.207960 69.702780 106.083995 0.000000 0.000000 0.000000 
0.121383 0.895215 1.419799 -0.950677 -7.274536 8.443980 4.912125 -0.948691 -43.144422 -3.168004 1.535635 45.944591 2.963455 6.088986 -0.463488 0.000000 0.000000 0.000000 0.242856 -1.198871 13.459431 -7.789234 2.114943 11.504744 1.399237 6.735331 -4.144565 0.000000 0.000000 0.000000 0.350020 -0.242935 5.570924 -3.879922 1.746243 -2.532674 -1.582291 20.526548 7.979896 9.430015 -0.464183 -28.205527 0.000000 0.000000 0.000000 -15.570566 1.870937 -5.903195 -44.152570 6.740268 -6.935169 -67.597257 -52.170837 33.091355 0.000000 0.000000 0.000000 9.486805 -5.539639 -1.444281 58.521708 11.937281 1.197008 121.065540 69.289989 117.714587 0.000000 0.000000 0.000000 
0.141408 0.886686 1.492984 -0.193555 -5.229397 9.808931 2.648799 -2.095405 -41.096730 -4.813479 2.179720 47.531233 4.048080 7.009729 -5.863319 0.000000 0.000000 0.000000 -0.219896 -0.791994 8.835300 -8.031421 4.175578 26.199073 1.663416 2.247154 2.997671 0.000000 0.000000 0.000000 -0.493700 -0.172418 5.646400 -3.353472 1.471111 -4.682371 -1.450366 19.226874 9.676420 10.416261 -0.902015 -28.761564 0.000000 0.000000 0.000000 -18.806902 1.113733 -6.655322 -40.819836 7.473819 -6.233396 -68.064180 -52.594979 34.074260 0.000000 0.000000 0.000000 8.061727 -7.176462 -2.324276 60.087569 8.924221 -0.084596 122.985362 65.942977 117.081391 0.000000 0.000000 0.000000 
0.161687 0.876294 1.567126 1.137422 -1.708693 9.681278 -0.829721 -3.355951 -35.974083 -5.824940 2.015095 48.278581 5.233646 8.579856 -10.075287 0.000000 0.000000 0.000000 -0.170061 0.072252 -0.670794 -6.023968 6.192740 50.109332 2.706399 1.032797 10.025549 0.000000 0.000000 0.000000 -1.072105 -0.178314 7.374390 -2.861597 1.303344 -4.283613 -3.939138 15.376367 8.770850 10.431178 -0.988867 -29.357019 0.000000 0.000000 0.000000 -19.360206 -0.068054 -5.805066 -39.732812 3.845106 -4.915318 -68.807754 -56.531209 38.245305 0.000000 0.000000 0.000000 9.225785 -8.665879 -3.166880 60.660991 4.501720 -2.395850 123.480843 63.833042 113.959705 0.000000 0.000000 0.000000 
0.178151 0.865589 1.639757 2.225207 0.836464 8.962008 -4.227367 -3.697350 -29.290670 -4.842982 0.792193 48.472019 5.561446 7.878803 -13.875072 0.000000 0.000000 0.000000 0.007548 1.379802 -13.892665 -2.266252 5.125813 73.564387 1.660681 -1.677927 11.782438 0.000000 0.000000 0.000000 -1.681791 -0.184189 9.371166 -1.688274 0.818493 -2.784668 -5.825899 10.670704 8.018459 10.476795 -1.172917 -30.597906 0.000000 0.000000 0.000000 -20.515246 -3.390688 -3.606585 -39.341411 -2.603642 -2.929873 -66.048007 -63.283700 42.660926 0.000000 0.000000 0.000000 9.642969 -8.618499 -3.441877 61.384580 1.041980 -4.407322 120.581757 63.317678 107.338209 0.000000 0.000000 0.000000 
0.190804 0.859737 1.717161 2.023819 3.579562 7.552350 -5.975320 -2.771152 -19.974874 -2.742984 -0.988108 44.794571 5.503922 6.278275 -15.740008 0.000000 0.000000 0.000000 0.990108 2.664019 -26.547566 0.307118 1.747713 85.934645 -1.073178 -5.317998 6.511842 0.000000 0.000000 0.000000 -0.914202 -0.415476 12.071111 0.041346 0.113595 -3.682892 -7.070647 4.704688 9.694961 9.030318 -0.989258 -31.434275 0.000000 0.000000 0.000000 -23.856341 -5.052964 -1.854262 -36.823244 -10.885256 -0.799570 -65.070093 -70.269650 49.522423 0.000000 0.000000 0.000000 11.072202 -7.925974 -3.641972 59.318583 -3.314325 -7.139187 118.586927 61.932967 100.179736 0.000000 0.000000 0.000000 
